<svg xmlns="http://www.w3.org/2000/svg" width="512" height="512" fill="none"><path fill="#d9d9d9" d="M61.055 24.324h365.664v463.355H61.055zM451.227 73.152h24.289v48.77h-24.289z"/><path fill="#9f9f9f" d="M451.227 146.266h24.289v48.77h-24.289z"/><path fill="#555" d="M451.227 219.379h24.289v48.77h-24.289z"/><path fill="#000" d="M451.21 487.68V292.64h48.64V48.8h-48.64V24.32h-24.48v463.36zm0-414.56h24.32v48.8h-24.32zm0 73.12h24.32v48.8h-24.32zm0 73.28h24.32v48.64h-24.32zM61.05 487.68h365.6V512H61.05zm292.48-97.6h24.48v24.48h-24.48zm-48.8 48.8h73.28v24.32h-73.28zm48.88-170.72v-24.32h24.48V121.92h-24.48V97.6h-195.2v24.32h-24.24v121.92h24.24v24.32zM182.97 146.24h146.24v24.48H182.97zm0 48.8h146.24v24.48H182.97zm121.76 195.04h24.48v24.48h-24.48zM61.05 0h365.6v24.32H61.05zm24.32 438.88v-24.32H61.05v-73.28h24.32v-24.32H61.05v-48.8h24.32v-24.32H61.05v-48.8h24.32v-24.32H61.05V97.6h24.32V73.12H61.05v-48.8H36.57v48.8H12.25V97.6h24.32v73.12H12.25v24.32h24.32v48.8H12.25v24.32h24.32v48.8H12.25v24.32h24.32v73.28H12.25v24.32h24.32v48.8h24.48v-48.8z"/></svg>